<?xml version="1.0" encoding="UTF-8"?>
<svg width="900" height="600" viewBox="0 0 900 600" xmlns="http://www.w3.org/2000/svg">
  <!-- Background -->
  <rect width="900" height="600" fill="#FFFFFF"/>
  
  <!-- Left side: Conceptual Spaces -->
  <g transform="translate(100,100)">
    <text x="150" y="-30" text-anchor="middle" font-size="18" font-weight="bold" fill="#333333" font-family="Arial">Conceptual Spaces</text>
    
    <!-- Quality dimensions cube -->
    <g stroke="#6A6A9A" fill="none" stroke-width="1.5">
      <!-- Back face -->
      <rect x="100" y="0" width="200" height="200" fill="#F0F0F8" opacity="0.3" stroke-dasharray="4"/>
      <!-- Front face -->
      <rect x="50" y="50" width="200" height="200" fill="#F0F0F8" opacity="0.5"/>
      <!-- Connecting lines -->
      <line x1="50" y1="50" x2="100" y2="0"/>
      <line x1="250" y1="50" x2="300" y2="0"/>
      <line x1="50" y1="250" x2="100" y2="200"/>
      <line x1="250" y1="250" x2="300" y2="200"/>
    </g>
    
    <!-- Quality dimension labels -->
    <g font-size="14" fill="#333333" font-family="Arial">
      <text x="20" y="150" text-anchor="end">Properties</text>
      <text x="150" y="290" text-anchor="middle">Domains</text>
      <text x="330" y="100" text-anchor="start">Qualities</text>
    </g>
    
    <!-- Convex regions -->
    <path d="M120,120 C150,80 200,90 220,130 C240,170 200,200 160,180 C120,160 100,150 120,120" 
          fill="rgba(48,160,255,0.3)" stroke="#30A0FF"/>
    <path d="M140,140 C170,100 220,110 240,150 C260,190 220,220 180,200 C140,180 120,170 140,140" 
          fill="rgba(255,64,128,0.2)" stroke="#FF4080"/>
  </g>

  <!-- Right side: Hybrid S-H Space -->
  <g transform="translate(500,100)">
    <text x="150" y="-30" text-anchor="middle" font-size="18" font-weight="bold" fill="#333333" font-family="Arial">Hybrid S-H Space</text>
    
    <!-- Sphere with hyperbolic deformation -->
    <g>
      <!-- Background sphere -->
      <circle cx="150" cy="150" r="100" fill="#F0F0F8" opacity="0.5" stroke="#6A6A9A" stroke-width="1.5"/>
      
      <!-- Grid lines -->
      <g stroke="#6A6A9A" fill="none">
        <!-- Hyperbolic grid lines -->
        <path d="M50,150 Q150,50 250,150" stroke="#30A0FF" stroke-width="1.5" stroke-dasharray="4"/>
        <path d="M50,150 Q150,250 250,150" stroke="#30A0FF" stroke-width="1.5" stroke-dasharray="4"/>
        <!-- Spherical grid lines -->
        <ellipse cx="150" cy="150" rx="100" ry="30" stroke="#FF4080" stroke-width="1"/>
        <ellipse cx="150" cy="150" rx="30" ry="100" stroke="#FF4080" stroke-width="1"/>
        <!-- Main circle outline -->
        <circle cx="150" cy="150" r="100" stroke-width="2" stroke="#6A6A9A"/>
      </g>
      
      <!-- Coordinate labels -->
      <g font-size="14" fill="#333333" font-family="Arial">
        <text x="280" y="150">θ (Archetype)</text>
        <text x="150" y="20">φ (Expression)</text>
        <text x="280" y="270">r (Mundane)</text>
        <text x="230" y="90">κ (Curvature)</text>
      </g>
      
      <!-- Curvature indicator -->
      <path d="M150,150 Q200,100 250,150" stroke="#FFB830" stroke-width="2.5"/>
      
      <!-- Center point (Observer) -->
      <circle cx="150" cy="150" r="10" fill="#40A0A0"/>
    </g>
  </g>

  <!-- Connecting arrow and mapping description -->
  <g transform="translate(425,150)">
    <path d="M0,0 L50,0" stroke="#6A6A9A" stroke-width="2" marker-end="url(#arrowhead)"/>
    <text x="25" y="-15" text-anchor="middle" font-size="14" fill="#333333" font-family="Arial">Maps to</text>
    <text x="25" y="25" text-anchor="middle" font-size="12" fill="#6A6A9A" font-family="Arial">Geometric Transform</text>
  </g>
  
  <!-- Legend (moved to bottom) -->
  <rect x="350" y="480" width="200" height="100" fill="#F0F0F8" stroke="#6A6A9A" stroke-width="1" rx="5"/>
  <g font-size="12" font-family="Arial">
    <text x="360" y="500" fill="#333333">Comparison Components:</text>
    <text x="360" y="520" fill="#FFB830">● Archetypal (Curvature)</text>
    <text x="360" y="540" fill="#30A0FF">● Expression (Hyperbolic)</text>
    <text x="360" y="560" fill="#FF4080">● Mundane (Spherical)</text>
    <text x="360" y="580" fill="#40A0A0">● Observer Reference</text>
  </g>
  
  <!-- Definitions -->
  <defs>
    <!-- Arrow marker -->
    <marker id="arrowhead" markerWidth="10" markerHeight="7" 
            refX="9" refY="3.5" orient="auto">
      <polygon points="0 0, 10 3.5, 0 7" fill="#6A6A9A"/>
    </marker>
  </defs>
</svg>

