<?xml version="1.0" encoding="UTF-8" standalone="no"?>
<svg width="800" height="600" viewBox="0 0 800 600" xmlns="http://www.w3.org/2000/svg">
    <!-- Styles -->
    <defs>
        <marker id="arrowhead" markerWidth="10" markerHeight="7" refX="9" refY="3.5" orient="auto">
            <polygon points="0 0, 10 3.5, 0 7" fill="#666"/>
        </marker>
    </defs>
    <style>
        .title { font-size: 20px; font-weight: bold; font-family: Arial; }
        .label { font-size: 14px; font-family: Arial; }
        .code { font-size: 12px; font-family: 'Courier New'; }
        .struct { fill: #e1f3f8; stroke: #0366d6; }
        .method { fill: #f1e05a; stroke: #b07219; }
        .component { fill: #f6f8fa; stroke: #24292e; }
    </style>

    <!-- Title -->
    <text x="400" y="40" text-anchor="middle" class="title">HybridTriplet Core Structure</text>

    <!-- HybridTriplet Struct -->
    <rect x="50" y="80" width="200" height="120" rx="10" class="struct"/>
    <text x="150" y="105" text-anchor="middle" class="label">HybridTriplet</text>
    <text x="60" y="130" class="code">spherical: SphericalCoords</text>
    <text x="60" y="150" class="code">poincare: [f32; 3]</text>
    <text x="60" y="170" class="code">curvature: f32</text>

    <!-- Methods -->
    <rect x="300" y="80" width="200" height="120" rx="10" class="method"/>
    <text x="400" y="105" text-anchor="middle" class="label">Core Methods</text>
    <text x="310" y="130" class="code">new()</text>
    <text x="310" y="150" class="code">distance()</text>
    <text x="310" y="170" class="code">hyperbolic_distance()</text>

    <!-- Spatial Index -->
    <rect x="50" y="250" width="200" height="120" rx="10" class="component"/>
    <text x="150" y="275" text-anchor="middle" class="label">HybridSpatialIndex</text>
    <text x="60" y="300" class="code">spherical_index: KDTree</text>
    <text x="60" y="320" class="code">hyperbolic_index: BallTree</text>
    <text x="60" y="340" class="code">aspect_cache: LRUCache</text>

    <!-- Distance Calculations -->
    <rect x="300" y="250" width="200" height="120" rx="10" class="component"/>
    <text x="400" y="275" text-anchor="middle" class="label">Distance Calculations</text>
    <text x="310" y="300" class="code">hybrid_aspect_angle()</text>
    <text x="310" y="320" class="code">is_significant_hybrid_aspect()</text>

    <!-- Geometry Visualization -->
    <g transform="translate(550,80)">
        <!-- Spherical Space -->
        <circle cx="100" cy="60" r="50" fill="none" stroke="#0366d6" stroke-width="2"/>
        <text x="100" y="130" text-anchor="middle" class="label">Spherical Space</text>
        
        <!-- Hyperbolic Space -->
        <path d="M 50,60 Q 100,0 150,60" fill="none" stroke="#b07219" stroke-width="2"/>
        <text x="100" y="170" text-anchor="middle" class="label">Hyperbolic Space</text>
    </g>

    <!-- Connections -->
    <line x1="250" y1="140" x2="300" y2="140" stroke="#666" stroke-width="2" marker-end="url(#arrowhead)"/>
    <line x1="150" y1="200" x2="150" y2="250" stroke="#666" stroke-width="2" marker-end="url(#arrowhead)"/>
    <line x1="400" y1="200" x2="400" y2="250" stroke="#666" stroke-width="2" marker-end="url(#arrowhead)"/>

    <!-- Legend -->
    <rect x="550" y="250" width="200" height="120" rx="10" fill="white" stroke="#24292e"/>
    <text x="650" y="275" text-anchor="middle" class="label">Legend</text>
    <rect x="560" y="290" width="20" height="20" class="struct"/>
    <text x="590" y="305" class="label">Core Structure</text>
    <rect x="560" y="320" width="20" height="20" class="method"/>
    <text x="590" y="335" class="label">Methods</text>
    <rect x="560" y="350" width="20" height="20" class="component"/>
    <text x="590" y="365" class="label">Components</text>
</svg>
